# Blender v3.2.0 OBJ File: ''
# www.blender.org
mtllib CubeReflection.mtl
o Cube
v 8.000000 -0.750000 -8.000000
v 8.000000 -1.250000 -8.000000
v 8.000000 -0.750000 8.000000
v 8.000000 -1.250000 8.000000
v -8.000000 -0.750000 -8.000000
v -8.000000 -1.250000 -8.000000
v -8.000000 -0.750000 8.000000
v -8.000000 -1.250000 8.000000
vt 0.875000 0.500000
vt 0.625000 0.750000
vt 0.625000 0.500000
vt 0.375000 1.000000
vt 0.375000 0.750000
vt 0.625000 0.000000
vt 0.375000 0.250000
vt 0.375000 0.000000
vt 0.375000 0.500000
vt 0.125000 0.750000
vt 0.125000 0.500000
vt 0.625000 0.250000
vt 0.875000 0.750000
vt 0.625000 1.000000
vn 0.0000 1.0000 0.0000
vn 0.0000 0.0000 1.0000
vn -1.0000 0.0000 0.0000
vn 0.0000 -1.0000 0.0000
vn 1.0000 0.0000 0.0000
vn 0.0000 0.0000 -1.0000
usemtl WhiteMTL
s off
f 5/1/1 3/2/1 1/3/1
f 3/2/2 8/4/2 4/5/2
f 7/6/3 6/7/3 8/8/3
f 2/9/4 8/10/4 6/11/4
f 1/3/5 4/5/5 2/9/5
f 5/12/6 2/9/6 6/7/6
f 5/1/1 7/13/1 3/2/1
f 3/2/2 7/14/2 8/4/2
f 7/6/3 5/12/3 6/7/3
f 2/9/4 4/5/4 8/10/4
f 1/3/5 3/2/5 4/5/5
f 5/12/6 1/3/6 2/9/6
o Cube.001_Cube.002
v -1.000000 -0.500000 1.000000
v -1.000000 1.500000 1.000000
v -1.000000 -0.500000 -1.000000
v -1.000000 1.500000 -1.000000
v 1.000000 -0.500000 1.000000
v 1.000000 1.500000 1.000000
v 1.000000 -0.500000 -1.000000
v 1.000000 1.500000 -1.000000
vt 0.625000 0.000000
vt 0.375000 0.250000
vt 0.375000 0.000000
vt 0.625000 0.250000
vt 0.375000 0.500000
vt 0.625000 0.750000
vt 0.375000 1.000000
vt 0.375000 0.750000
vt 0.125000 0.750000
vt 0.125000 0.500000
vt 0.875000 0.500000
vt 0.625000 0.500000
vt 0.625000 1.000000
vt 0.875000 0.750000
vn -1.0000 0.0000 0.0000
vn 0.0000 0.0000 -1.0000
vn 0.0000 0.0000 1.0000
vn 0.0000 -1.0000 0.0000
vn 0.0000 1.0000 0.0000
vn 1.0000 0.0000 0.0000
usemtl RedMTl
s off
f 10/15/7 11/16/7 9/17/7
usemtl BlueMTl
f 12/18/8 15/19/8 11/16/8
usemtl RedMTl
usemtl BlueMTl
f 14/20/9 9/21/9 13/22/9
f 15/19/10 9/23/10 11/24/10
usemtl RedMTl
f 12/25/11 14/20/11 16/26/11
f 10/15/7 12/18/7 11/16/7
f 12/18/8 16/26/8 15/19/8
f 16/26/12 14/20/12 13/22/12
usemtl BlueMTl
f 14/20/9 10/27/9 9/21/9
usemtl RedMTl
f 15/19/10 13/22/10 9/23/10
f 12/25/11 10/28/11 14/20/11
f 16/26/12 13/22/12 15/19/12
