# Blender v3.2.0 OBJ File: ''
# www.blender.org
mtllib FloatingCube.mtl
o Cube.001
v -1.000000 4.000000 -0.999999
v 1.000000 4.000000 1.000001
v 1.000000 4.000000 -0.999999
v -1.000000 2.000000 1.000000
v 1.000000 2.000000 1.000000
v -1.000000 4.000000 1.000001
v -1.000000 2.000000 -1.000000
v 1.000000 2.000000 -1.000000
vt 0.875000 0.500000
vt 0.625000 0.750000
vt 0.625000 0.500000
vt 0.375000 1.000000
vt 0.375000 0.750000
vt 0.375000 0.500000
vt 0.625000 0.250000
vt 0.375000 0.250000
vt 0.875000 0.750000
vt 0.625000 1.000000
vt 0.125000 0.750000
vt 0.125000 0.500000
vt 0.625000 0.000000
vt 0.375000 0.000000
vn 0.0000 1.0000 0.0000
vn 0.0000 -0.0000 1.0000
vn 1.0000 0.0000 0.0000
vn 0.0000 0.0000 -1.0000
vn 0.0000 -1.0000 -0.0000
vn -1.0000 -0.0000 0.0000
usemtl RedMTl
s 1
f 1/1/1 2/2/1 3/3/1
f 2/2/2 4/4/2 5/5/2
f 3/3/3 5/5/3 8/6/3
f 1/7/4 8/6/4 7/8/4
f 1/1/1 6/9/1 2/2/1
f 2/2/2 6/10/2 4/4/2
f 3/3/3 2/2/3 5/5/3
f 1/7/4 3/3/4 8/6/4
usemtl GreenMTL
f 8/6/5 4/11/5 7/12/5
f 8/6/5 5/5/5 4/11/5
usemtl FlagMTL
f 6/13/6 7/8/6 4/14/6
f 6/13/6 1/7/6 7/8/6
